PathFileType	4	(X/Y/Z)	/Users/mathieubourgeois/Desktop/Analyse/Traitement/Sujet_06/Transformed_Static_Sujet_06_Tpose.trc
DataRate	CameraRate	NumFrames	NumMarkers	Units	OrigDataRate	OrigDataStartFrame	OrigNumFrames
120.000000	120.000000	4	36	mm	120.000000	220	252
Frame#	Time	RFHD			RANE			STRN			LANI			LKNE			T10			RHUM			RWRB			C7			LFWT			LTOE			RTOE			LWRA			LBWT			RBWT			RFWT			LKNI			RKNI			RKNE			LANE			RANI			LHEE			RHEE			LHUM			LRAD			RRAD			RWRA			LWRB			LFHD			LBHD			RBHD			RSHO			LSHO			CLAV			LCAR			RCAR			
		X1	Y1	Z1	X2	Y2	Z2	X3	Y3	Z3	X4	Y4	Z4	X5	Y5	Z5	X6	Y6	Z6	X7	Y7	Z7	X8	Y8	Z8	X9	Y9	Z9	X10	Y10	Z10	X11	Y11	Z11	X12	Y12	Z12	X13	Y13	Z13	X14	Y14	Z14	X15	Y15	Z15	X16	Y16	Z16	X17	Y17	Z17	X18	Y18	Z18	X19	Y19	Z19	X20	Y20	Z20	X21	Y21	Z21	X22	Y22	Z22	X23	Y23	Z23	X24	Y24	Z24	X25	Y25	Z25	X26	Y26	Z26	X27	Y27	Z27	X28	Y28	Z28	X29	Y29	Z29	X30	Y30	Z30	X31	Y31	Z31	X32	Y32	Z32	X33	Y33	Z33	X34	Y34	Z34	X35	Y35	Z35	X36	Y36	Z36	

221	1.833333333333333	-879.759765625	1638.044921875	329.6562805175779	-958.5936889648438	75.57263183593751	216.4344482421874	-809.665283203125	1232.7373046875	363.7851562499998	-763.92333984375	77.60294342041017	223.6296081542968	-673.1715087890625	481.4093322753906	240.7552642822264	-815.481201171875	1211.414916992188	162.7639465332029	-1258.722778320312	1408.780029296875	202.6518096923826	-1483.223999023438	1482.395629882812	213.2243804931638	-813.4940185546875	1453.182373046875	207.8177337646482	-699.2553100585938	984.05419921875	337.235382080078	-697.4541015625	37.39346694946291	392.5990600585936	-918.3815307617188	38.52692031860354	399.6796569824218	-117.6579742431641	1343.151000976562	131.5797271728514	-759.320068359375	1011.211853027344	182.7936859130858	-865.9857177734375	1012.497985839844	189.687774658203	-913.247802734375	987.4420776367188	346.2119140624998	-767.5556030273438	435.7852172851562	234.7271881103514	-866.05712890625	441.8011169433594	222.4873962402342	-960.8096313476562	492.4208068847656	234.3881530761717	-683.42724609375	68.85009765625001	202.5298614501952	-877.69677734375	83.47057342529298	226.9886779785155	-724.61572265625	52.21806335449219	154.5114288330077	-922.7936401367188	54.08458328247071	162.4919433593749	-366.708740234375	1358.94091796875	160.7089233398436	-359.8654174804688	1314.733032226562	206.3459167480467	-1257.55322265625	1370.548461914062	256.564270019531	-1496.588989257812	1426.947998046875	192.2575836181638	-121.8984680175781	1403.726318359375	129.5664672851561	-734.0150146484375	1641.60302734375	327.913391113281	-735.4044189453125	1579.234252929688	190.0162506103514	-864.102294921875	1581.35205078125	175.1001129150389	-951.8861083984375	1447.98388671875	240.7150726318357	-662.6962280273438	1434.523681640625	228.9617462158201	-807.0958251953125	1385.409790039062	325.764923095703	-34.98042297363283	1383.539428710938	109.9896621704101	-1590.53759765625	1467.7470703125	172.1043701171872	
222	1.841666666666667	-879.7521362304688	1638.023193359375	329.7413330078123	-958.5983276367188	75.56463623046876	216.4379730224608	-809.6544189453125	1232.718994140625	363.8452148437498	-763.9269409179688	77.61703491210939	223.6388702392577	-673.184814453125	481.3883056640625	240.7910156249999	-815.4820556640625	1211.401245117188	162.8688964843748	-1258.709716796875	1408.765625	202.7568206787107	-1483.230712890625	1482.349731445312	213.3183898925779	-813.4976806640625	1453.172729492188	207.9122009277342	-699.2597045898438	984.0336303710938	337.3194580078123	-697.4510498046875	37.38308334350588	392.6044921874999	-918.3780517578125	38.51979446411135	399.6784362792968	-117.6546249389649	1343.117553710938	131.635040283203	-759.3152465820312	1011.206909179688	182.8905181884764	-865.97998046875	1012.519836425781	189.7828979492186	-913.2554931640625	987.4315185546875	346.3062744140623	-767.558837890625	435.7908935546875	234.7546386718749	-866.0524291992188	441.7964477539062	222.5035552978514	-960.8028564453125	492.4207153320312	234.4279937744139	-683.4335327148438	68.86098480224611	202.523452758789	-877.6796875	83.46304321289064	226.9823608398436	-724.6216430664062	52.22709655761719	154.5080261230468	-922.7808227539062	54.07580184936524	162.4972534179686	-366.7200622558594	1358.879150390625	160.7712402343749	-359.8668212890625	1314.697387695312	206.3993988037108	-1257.547729492188	1370.518432617188	256.6521301269529	-1496.587646484375	1426.908325195312	192.3535156249997	-121.89404296875	1403.689086914062	129.5918731689452	-734.0076904296875	1641.57568359375	328.034484863281	-735.3709716796875	1579.23876953125	190.1495819091795	-864.0670166015625	1581.375732421875	175.2022705078123	-951.882080078125	1447.994995117188	240.7964477539061	-662.6871948242188	1434.512451171875	229.0370635986326	-807.0848999023438	1385.391235351562	325.8434143066405	-34.96974945068361	1383.501098632812	110.0363235473632	-1590.536865234375	1467.698974609375	172.1835784912107	
223	1.85	-879.7384643554688	1638.0146484375	329.8357238769529	-958.6002807617188	75.57032775878908	216.4369964599608	-809.6764526367188	1232.688354492188	363.9074401855467	-763.9343872070312	77.60652923583986	223.6511840820312	-673.185791015625	481.38720703125	240.8174896240233	-815.4896240234375	1211.389038085938	162.9462432861326	-1258.701538085938	1408.748413085938	202.8638916015623	-1483.227661132812	1482.317993164062	213.3956756591794	-813.4915771484375	1453.156372070312	208.001754760742	-699.272705078125	984.0247192382812	337.4134216308592	-697.454345703125	37.37867355346682	392.6076660156249	-918.369140625	38.51616668701174	399.6796569824218	-117.6566162109375	1343.071411132812	131.6889190673827	-759.3082275390625	1011.20263671875	182.9789276123045	-865.9829711914062	1012.515197753906	189.8778839111326	-913.266845703125	987.4207153320312	346.3890380859373	-767.5621337890625	435.77978515625	234.7753295898436	-866.0610961914062	441.7935485839844	222.5342559814452	-960.8096313476562	492.4221801757812	234.4721832275389	-683.4362182617188	68.84981536865236	202.5352630615234	-877.6839599609375	83.46709442138673	227.0000457763671	-724.6266479492188	52.23161315917969	154.5139007568359	-922.7678833007812	54.08390808105469	162.4888153076171	-366.7039794921875	1358.84521484375	160.8135681152342	-359.863037109375	1314.675903320312	206.4546051025389	-1257.53466796875	1370.513061523438	256.7204284667966	-1496.5859375	1426.86474609375	192.4323730468747	-121.9022521972656	1403.64501953125	129.6360626220702	-734.0006103515625	1641.550048828125	328.1569213867185	-735.330322265625	1579.246459960938	190.272994995117	-864.0169677734375	1581.385131835938	175.2916107177732	-951.87255859375	1448.0146484375	240.8945007324217	-662.6824951171875	1434.493286132812	229.1010742187498	-807.0784301757812	1385.374389648438	325.9317932128905	-34.97847747802736	1383.456298828125	110.0693359374999	-1590.527465820312	1467.656982421875	172.2713775634763	
224	1.858333333333333	-879.72216796875	1638.020141601562	329.8981628417966	-958.5807495117188	75.5630340576172	216.4269714355468	-809.6502075195312	1232.655517578125	363.9472045898436	-763.9312744140625	77.59490203857423	223.645538330078	-673.1918334960938	481.3707885742188	240.8629608154296	-815.4859619140625	1211.380004882812	163.0386657714842	-1258.694458007812	1408.739501953125	202.9457092285154	-1483.218627929688	1482.294799804688	213.4526672363279	-813.4828491210938	1453.15625	208.0877532958982	-699.2681884765625	984.0068359375	337.4973754882811	-697.4513549804688	37.37613296508791	392.6189880371093	-918.3798217773438	38.5172920227051	399.6836853027343	-117.6601638793945	1343.026611328125	131.7349090576171	-759.3004150390625	1011.213317871094	183.0639343261717	-865.96484375	1012.525512695312	189.9596862792967	-913.2608032226562	987.4005126953125	346.4740905761717	-767.572021484375	435.7819519042969	234.8017578124999	-866.0618896484375	441.7941284179688	222.5778808593749	-960.8021850585938	492.419921875	234.5098876953124	-683.4412231445312	68.85485076904298	202.5418243408202	-877.6821899414062	83.47281646728517	227.0016326904296	-724.6217651367188	52.22676849365235	154.5247497558593	-922.7850952148438	54.09455490112305	162.4911651611327	-366.7094116210938	1358.811645507812	160.8688964843749	-359.8591918945312	1314.645629882812	206.5035858154295	-1257.52734375	1370.51611328125	256.8141479492185	-1496.57421875	1426.831298828125	192.5164947509763	-121.9013671875	1403.604248046875	129.6646575927733	-733.9987182617188	1641.547607421875	328.2828979492185	-735.29443359375	1579.251708984375	190.3778686523436	-863.9743041992188	1581.398315429688	175.3663482666014	-951.8626708984375	1448.009155273438	240.9948883056639	-662.6797485351562	1434.477905273438	229.167266845703	-807.0806274414062	1385.359008789062	325.9975585937498	-34.96661758422853	1383.424438476562	110.1002655029296	-1590.528686523438	1467.610229492188	172.3562164306638	
